<svg width="126" height="56" viewBox="0 0 126 56" fill="none" xmlns="http://www.w3.org/2000/svg">
<path d="M53.14 26.53V33.88C53.14 34.9 52.845 35.695 52.255 36.265C51.665 36.825 50.875 37.105 49.885 37.105C48.885 37.105 48.075 36.815 47.455 36.235C46.845 35.655 46.54 34.845 46.54 33.805H48.64C48.65 34.255 48.755 34.605 48.955 34.855C49.165 35.105 49.465 35.23 49.855 35.23C50.235 35.23 50.525 35.11 50.725 34.87C50.925 34.63 51.025 34.3 51.025 33.88V26.53H53.14ZM57.8397 28.225V30.85H61.3647V32.515H57.8397V35.29H61.8147V37H55.7397V26.515H61.8147V28.225H57.8397ZM72.8281 37H70.7281L65.9731 29.815V37H63.8731V26.515H65.9731L70.7281 33.715V26.515H72.8281V37ZM82.1784 26.53V28.225H79.3884V37H77.2884V28.225H74.4984V26.53H82.1784ZM85.9606 35.335H89.4106V37H83.8606V26.53H85.9606V35.335ZM102.31 26.53V37H100.21V30.19L97.4054 37H95.8154L92.9954 30.19V37H90.8954V26.53H93.2804L96.6104 34.315L99.9404 26.53H102.31ZM110.957 35.005H106.787L106.097 37H103.892L107.657 26.515H110.102L113.867 37H111.647L110.957 35.005ZM110.387 33.325L108.872 28.945L107.357 33.325H110.387ZM124.379 37H122.279L117.524 29.815V37H115.424V26.515H117.524L122.279 33.715V26.515H124.379V37Z" fill="url(#paint0_radial_98628_88)"/>
<path d="M15.582 18.2195C12.9212 19.9098 10.8233 22.3542 9.55366 25.2437C8.28401 28.1331 7.89961 31.3377 8.44906 34.4523C8.99851 37.567 10.4571 40.4517 12.6405 42.7417C14.8238 45.0317 17.6338 46.6241 20.7152 47.3177C23.7965 48.0112 27.0107 47.7746 29.9514 46.6379C32.8921 45.5012 35.4272 43.5153 37.2361 40.9315C39.045 38.3477 40.0465 35.2819 40.1138 32.1219C40.1812 28.9619 39.3115 25.8495 37.6146 23.1784L30.888 27.4516C31.7364 28.7871 32.1713 30.3433 32.1376 31.9233C32.1039 33.5033 31.6032 35.0362 30.6988 36.3281C29.7943 37.62 28.5268 38.613 27.0564 39.1813C25.5861 39.7497 23.9789 39.868 22.4383 39.5212C20.8976 39.1745 19.4926 38.3782 18.4009 37.2332C17.3093 36.0882 16.58 34.6459 16.3052 33.0886C16.0305 31.5313 16.2227 29.9289 16.8575 28.4842C17.4924 27.0395 18.5413 25.8173 19.8717 24.9721L15.582 18.2195Z" fill="white"/>
<circle cx="24.1767" cy="31.6655" r="5" transform="rotate(-25.8445 24.1767 31.6655)" fill="#5CE1E6"/>
<path d="M31 5C31 2.23858 33.2386 0 36 0C38.7614 0 41 2.23858 41 5V27C41 29.7614 38.7614 32 36 32C33.2386 32 31 29.7614 31 27V5Z" fill="#6DE4E9"/>
<defs>
<radialGradient id="paint0_radial_98628_88" cx="0" cy="0" r="1" gradientUnits="userSpaceOnUse" gradientTransform="translate(102.925 28.4953) rotate(104.453) scale(13.9179 49.9456)">
<stop offset="0.00887753" stop-color="#DEF9FA"/>
<stop offset="0.1723" stop-color="#BEF3F5"/>
<stop offset="0.4204" stop-color="#9DEDF0"/>
<stop offset="0.5512" stop-color="#7DE7EB"/>
<stop offset="0.7154" stop-color="#5CE1E6"/>
<stop offset="1" stop-color="#33BBCF"/>
</radialGradient>
</defs>
</svg>
